<?xml version="1.0" encoding="UTF-8"?>
<svg id="Layer_2" data-name="Layer 2" xmlns="http://www.w3.org/2000/svg" viewBox="0 0 16.49 62.93">
  <g id="Layer_1-2" data-name="Layer 1">
    <path d="m8.36,29.4c.94.94,1.27.1,2.6.1s1.63-.88,2.58.04.17,1.21.17,2.5-.05,1.29-.05,2.59.85,1.66-.08,2.56-1.3-.19-2.63-.19-1.72-.72-2.63.24c-.96,1.02-.26,1.38-.26,2.78s.08,1.4.08,2.8.39,1.4.39,2.8-.1,1.4-.1,2.8-.35,1.4-.35,2.8,0,1.4,0,2.8.5,1.4.5,2.8-.07,1.4-.07,2.81.71,1.75-.24,2.78c-.87.95-1.27-.1-2.56-.1s-1.29.02-2.59.02-1.85,1.19-2.73.24c-.95-1.03.23-1.53.23-2.94s.11-1.41.11-2.81-.17-1.41-.17-2.81.15-1.41.15-2.81-.43-1.41-.43-2.81.13-1.4.13-2.81,0-1.41,0-2.81-.07-1.41-.07-2.81.17-1.41.17-2.81-.2-1.41-.2-2.81.49-1.41.49-2.81-.18-1.41-.18-2.82.02-1.41.02-2.81-.12-1.41-.12-2.82.26-1.41.26-2.82-.08-1.41-.08-2.82-.31-1.41-.31-2.81-.02-1.41-.02-2.82.15-1.41.15-2.82-.21-1.41-.21-2.82.32-1.41.32-2.82S-.58,1.4.37.35c.87-.95,1.46.31,2.75.31s1.29-.02,2.58-.02,1.29-.4,2.58-.4,1.29,0,2.58,0,1.29.36,2.58.36,1.58-.93,2.49-.02.31,1.2.31,2.49-.32,1.29-.32,2.59,1.13,1.79.22,2.71-1.41-.06-2.69-.06-1.29.19-2.57.19-1.83-1.32-2.72-.4.23,1.47.23,2.79-.08,1.32-.08,2.64.09,1.32.09,2.65-.17,1.32-.17,2.65.33,1.32.33,2.65-.48,1.33-.48,2.65.31,1.31.04,2.61-.68,1.7.26,2.64Z" style="fill: #261717;"/>
  </g>
</svg>