<?xml version="1.0" encoding="UTF-8"?>
<svg id="Layer_2" data-name="Layer 2" xmlns="http://www.w3.org/2000/svg" viewBox="0 0 131.84 130.05">
  <g id="Layer_1-2" data-name="Layer 1">
    <g>
      <path d="m32.64,129.54c-.94.95-1.47.12-2.8.12s-1.34-.19-2.68-.19-1.34-.09-2.68-.09-1.34.08-2.68.08-1.34-.13-2.68-.13-1.34.23-2.68.23-1.34-.35-2.68-.35-1.34.44-2.68.44-1.34-.21-2.68-.21-1.34.13-2.68.13-1.34-.16-2.69-.16-1.67.89-2.61-.07.06-1.3.06-2.67-.28-1.37-.28-2.74.41-1.37.41-2.74-.53-1.37-.53-2.74.41-1.37.41-2.74-.14-1.37-.14-2.74.24-1.37.24-2.74-.2-1.37-.2-2.74-.05-1.37-.05-2.74.11-1.37.11-2.74-.35-1.37-.35-2.74.31-1.37.31-2.74-.11-1.37-.11-2.74-.15-1.37-.15-2.74.43-1.37.43-2.74-.37-1.37-.37-2.74.16-1.37.16-2.74-.13-1.37-.13-2.74-.18-1.37-.18-2.74.46-1.37.46-2.74-.4-1.37-.4-2.74.46-1.37.46-2.74-.32-1.37-.32-2.74.14-1.37.14-2.74.04-1.37.04-2.74,0-1.37,0-2.74.04-1.37.04-2.74-.4-1.37-.4-2.74,0-1.37,0-2.74.19-1.37.19-2.74.32-1.37.32-2.74-.1-1.37-.1-2.74-.39-1.37-.39-2.74.05-1.37.05-2.74.41-1.37.41-2.74-.12-1.37-.12-2.74-.06-1.37-.06-2.74,0-1.37,0-2.74-.11-1.37-.11-2.74.16-1.37.16-2.74.1-1.37.1-2.74.03-1.37.03-2.74-.43-1.37-.43-2.74.47-1.37.47-2.74-.38-1.37-.38-2.75.18-1.37.18-2.75-.85-1.6.11-2.59,1.18-.37,2.52-.37,1.34.41,2.69.41,1.34-.28,2.69-.28,1.34-.01,2.69-.01,1.35-.18,2.69-.18,1.9-.85,2.85.11-.43,1.52-.43,2.9.43,1.37.43,2.75.03,1.37.03,2.75-.02,1.37-.02,2.74-.04,1.37-.04,2.74.16,1.37.16,2.75-.46,1.37-.46,2.75.2,1.37.2,2.75.15,1.37.15,2.75.07,1.37.07,2.75-.02,1.37-.02,2.75-.43,1.37-.43,2.75-.06,1.37-.06,2.75.55,1.37.55,2.75-.44,1.37-.44,2.75.46,1.37.46,2.75-.36,1.37-.36,2.75,0,1.37,0,2.75.19,1.37.19,2.75-.21,1.37-.21,2.75-.04,1.37-.04,2.75.02,1.37.02,2.74.15,1.37.15,2.75.07,1.37.07,2.75-.29,1.37-.29,2.74-.02,1.37-.02,2.75.45,1.37.45,2.75-.41,1.37-.41,2.75.35,1.37.35,2.75-.22,1.37-.22,2.75-.2,1.38-.2,2.75.1,1.37.1,2.75.24,1.38.24,2.75-.25,1.38-.25,2.75.28,1.38.28,2.75-.15,1.37-.15,2.75.16,1.38.16,2.75-.38,1.38-.38,2.75.38,1.38.38,2.75-.23,1.38-.23,2.76-.9,1.79.06,2.78,1.36-.08,2.7-.08,1.34.31,2.67.31,1.34-.21,2.67-.21,1.34-.09,2.67-.09,1.34.01,2.68.01,1.66-.84,2.6.11-.19,1.27-.19,2.61.24,1.34.24,2.69-.25,1.34-.25,2.69.18,1.34.18,2.69-.16,1.37.15,2.68c.35,1.47,1.02,1.88.07,2.83Z" style="fill: #e53333;"/>
      <path d="m55.27,112.88c-1.08.87-.17,1.39-.32,2.76s-.21,1.37-.36,2.75-.22,1.37-.37,2.74-.26,1.36-.42,2.74-.01,1.39-.17,2.77.66,1.63-.36,2.57-1.16.39-2.5.39-1.34-.4-2.69-.4-1.34.03-2.69.03-1.34.38-2.69.38-1.35-.07-2.69-.07-1.98,1.03-2.85,0,.38-1.5.55-2.87.36-1.34.53-2.71-.27-1.42-.1-2.79.49-1.33.66-2.7-.14-1.41.03-2.78.16-1.37.33-2.74.57-1.32.74-2.69.06-1.38.23-2.75-.17-1.41,0-2.78.5-1.33.67-2.7.38-1.34.55-2.71,0-1.39.18-2.76.06-1.38.23-2.76-.02-1.39.15-2.76.46-1.33.63-2.7.17-1.37.34-2.74.11-1.38.28-2.75-.02-1.39.15-2.77.6-1.32.77-2.69-.36-1.44-.19-2.81.3-1.35.47-2.72.55-1.32.72-2.69-.06-1.4.11-2.77.45-1.34.62-2.71-.14-1.41.03-2.78.4-1.34.58-2.71.08-1.38.25-2.75,0-1.39.18-2.76.35-1.35.52-2.72-.07-1.4.11-2.77.37-1.34.54-2.71.26-1.36.43-2.73.28-1.36.46-2.73-.01-1.39.16-2.76-.02-1.4.15-2.77.09-1.38.26-2.75.11-1.38.28-2.75.36-1.35.53-2.72.26-1.36.43-2.73.09-1.38.26-2.75.3-1.36.47-2.73-.06-1.4.11-2.77.52-1.33.69-2.7-.26-1.43-.09-2.8.38-1.35.55-2.72.04-1.39.21-2.77-.52-1.8.5-2.73,1.34.1,2.67.1,1.34.03,2.67.03,1.34-.28,2.67-.28,1.34.41,2.67.41,1.34-.53,2.68-.53,1.59-.52,2.58.38.27,1.27.44,2.63-.07,1.4.1,2.77.37,1.34.55,2.71.22,1.36.39,2.73.06,1.38.24,2.75.51,1.33.69,2.69-.14,1.41.03,2.78.28,1.36.45,2.73.32,1.35.49,2.72-.26,1.42-.09,2.79.54,1.32.71,2.69.02,1.39.19,2.76.3,1.35.47,2.72.35,1.35.52,2.72-.29,1.43-.11,2.8.57,1.32.74,2.69-.29,1.43-.11,2.8.49,1.33.66,2.7.03,1.39.2,2.76.13,1.38.3,2.74.17,1.37.34,2.74.13,1.38.3,2.75.57,1.32.74,2.69.17,1.37.34,2.74-.02,1.39.15,2.77-.15,1.41.02,2.78.27,1.36.44,2.73.56,1.32.73,2.69.12,1.38.29,2.75-.23,1.42-.06,2.79.29,1.35.47,2.72.24,1.36.41,2.73.18,1.37.35,2.74.28,1.36.45,2.73.02,1.39.19,2.76.07,1.38.25,2.75.15,1.38.32,2.75.59,1.32.77,2.69-.29,1.43-.12,2.8.55,1.32.72,2.7,0,1.39.16,2.77,0,1.39.17,2.76.61,1.32.78,2.69-.24,1.42-.07,2.8.45,1.34.62,2.71.18,1.37.36,2.75,1.36,1.87.46,2.93-1.54.05-2.88.05-1.34-.49-2.69-.49-1.34.43-2.69.43-1.34.03-2.69.03-1.35-.02-2.69-.02-1.78.84-2.77-.07-.35-1.43-.5-2.81.31-1.43.16-2.8-.35-1.35-.5-2.73-.3-1.36-.45-2.74-.22-1.37-.37-2.75.87-1.75-.21-2.62c-1.2-.97-1.42-.38-2.97-.38s-1.55-.06-3.1-.06-1.63.85-3.15.55c-1.61-.32-1.86-1.26-3.06-.28Zm6.16-73.87c-1.38-.03-.13,1.4-.23,2.77s-.15,1.37-.25,2.74-.17,1.37-.27,2.75-.21,1.37-.31,2.74.04,1.38-.06,2.76-.24,1.36-.34,2.74.37,1.41.27,2.79-.49,1.35-.59,2.72-.07,1.38-.17,2.76.28,1.4.18,2.78-.17,1.37-.27,2.75-.02,1.38-.11,2.76-.36,1.36-.46,2.74-.29,1.36-.39,2.74.34,1.41.25,2.79-.42,1.35-.52,2.73.21,1.4.12,2.78-.09,1.38-.18,2.76-.5,1.35-.6,2.73.01,1.39-.09,2.77-.87,1.57.08,2.58,1.2.25,2.59.25,1.39.21,2.79.21,1.91.82,2.86-.2-.19-1.45-.29-2.82-.3-1.36-.4-2.73.19-1.4.09-2.77-.1-1.38-.2-2.75-.16-1.37-.26-2.74-.29-1.36-.39-2.74.33-1.41.23-2.78-.63-1.34-.73-2.71.03-1.39-.07-2.76.27-1.4.17-2.78-.34-1.36-.44-2.74.18-1.4.08-2.77-.42-1.35-.52-2.73.13-1.39.03-2.77-.19-1.37-.29-2.75-.26-1.36-.36-2.74.08-1.39-.02-2.77-.34-1.36-.44-2.74.1-1.39,0-2.77-.36-1.36-.12-2.73c.28-1.59,1.02-2.78-.37-2.81Z" style="fill: #e53333;"/>
      <path d="m131.81,106.84c0,1.25-.09,1.25-.09,2.5,0,1.18-.2,1.18-.2,2.35s-.01,1.18-.02,2.35c-.02.95-.08,1.85-.16,2.72-.09.95-.24,1.83-.41,2.68-.19.94-.48,1.77-.76,2.59-.34.92-.65,1.76-1.2,2.51s-1.26,1.32-2.03,1.9c-.73.54-1.46,1.07-2.38,1.45-.82.35-1.65.85-2.63,1.07-.87.19-1.85.02-2.85.11-.9.08-1.82.6-2.82.6-1.43,0-1.43-.39-2.87-.39s-1.44-.03-2.87-.03-1.44.2-2.87.2-1.43-.28-2.87-.28-1.43.51-2.87.51-1.44-.49-2.87-.49-1.44-.03-2.87-.03-1.44,0-2.88,0-1.77,1.17-2.81.17.01-1.3.01-2.67-.06-1.37-.06-2.74.06-1.37.06-2.74-.25-1.37-.25-2.74-.04-1.37-.04-2.74.04-1.37.04-2.74.16-1.37.16-2.74.15-1.37.15-2.74.08-1.37.08-2.74-.26-1.37-.26-2.74-.13-1.37-.13-2.74.19-1.37.19-2.74-.19-1.37-.19-2.74-.03-1.37-.03-2.74.27-1.37.27-2.74-.13-1.37-.13-2.74.35-1.37.35-2.74-.38-1.37-.38-2.74.26-1.37.26-2.74-.3-1.37-.3-2.74.25-1.37.25-2.74.16-1.37.16-2.74-.06-1.37-.06-2.74-.12-1.37-.12-2.74-.09-1.37-.09-2.74-.27-1.37-.27-2.74.39-1.37.39-2.74-.09-1.37-.09-2.74.01-1.37.01-2.74.05-1.37.05-2.74.07-1.37.07-2.74.11-1.37.11-2.74-.14-1.37-.14-2.74.15-1.37.15-2.74-.46-1.37-.46-2.74.4-1.37.4-2.74-.03-1.37-.03-2.74-.38-1.37-.38-2.74.07-1.37.07-2.74-.08-1.37-.08-2.74.26-1.37.26-2.74.19-1.37.19-2.74-.44-1.37-.44-2.74.32-1.37.32-2.74-.31-1.37-.31-2.75-.01-1.37-.01-2.75-.63-1.64.34-2.61,1.24-.06,2.62-.06,1.38-.35,2.76-.35,1.38.33,2.76.33,1.38.21,2.76.21,1.38-.17,2.75-.17,1.38-.12,2.76-.12,1.38-.2,2.76-.2,1.38.29,2.76.29,1.38,0,2.76,0,1.38-.06,2.76-.06c.92,0,1.81-.14,2.64-.05.92.1,1.69.69,2.49.91.89.24,1.9.07,2.64.45.8.42,1.48,1.05,2.11,1.64s.89,1.49,1.35,2.25c.44.72,1,1.39,1.27,2.26.26.88.19,1.82.35,2.74s.58,1.76.64,2.69c.05.74-.14,1.57-.11,2.49.03.76.13,1.59.15,2.48.01.78.18,1.61.18,2.48,0,1.25-.18,1.25-.18,2.5,0,1.47.23,1.48.22,2.95s-.21,1.47-.21,2.94-.1,1.47-.1,2.95-.12,1.47-.13,2.95.18,1.48.17,2.95.19,1.48.18,2.96.07,1.48.07,2.95c0,.97.02,1.95-.06,2.88s-.4,1.9-.56,2.82-.48,1.86-.75,2.76-.51,1.85-.88,2.72-.9,1.68-1.37,2.51-.79,1.76-1.35,2.53-1.48,1.41-2.12,2.13c.65.71,1.64,1.31,2.2,2.07s.91,1.7,1.38,2.53,1.01,1.64,1.38,2.52.54,1.83.81,2.75.38,1.85.56,2.8.26,1.86.34,2.83.4,1.87.4,2.84c0,1.45-.4,1.45-.4,2.89s.54,1.44.54,2.89-.41,1.45-.4,2.89.15,1.44.15,2.89-.24,1.45-.23,2.89.21,1.45.21,2.89.06,1.45.06,2.89-.16,1.45-.1,2.9.27,1.44.27,2.89Zm-16.28-83.09c0-1.31-.1-2.41-.48-3.35-.46-1.12-1.07-2.11-2.08-2.71-.9-.45-1.75-.71-2.46-.71-.19,0-.19,0-.38,0-1.78,0-2.25-1.08-3.66.01-1.09.85-.13,1.51-.13,2.89s.12,1.38.12,2.76-.1,1.38-.1,2.76.09,1.38.09,2.76.24,1.38.24,2.76-.32,1.38-.32,2.76.48,1.38.48,2.76-.39,1.38-.39,2.76-.03,1.38-.03,2.76.2,1.38.2,2.76-.28,1.38-.28,2.76.51,1.38.51,2.77-1.49,2.07-.41,2.94c1.35,1.08,1.86.07,3.59.07.9,0,1.97-.28,3-.79,1.01-.59,1.72-1.63,2.18-2.75.39-.94.57-2.11.57-3.42,0-1.41-.06-1.41-.06-2.82s.06-1.41.06-2.82-.25-1.41-.25-2.82-.04-1.41-.04-2.82.04-1.41.04-2.82.16-1.41.16-2.82.21-1.42.15-2.83-.3-1.41-.3-2.82Zm0,53.89c0-1.31-.1-2.41-.48-3.35-.46-1.12-1.07-2.11-2.08-2.71-.9-.45-1.75-.71-2.46-.71-.19,0-.19,0-.38,0-1.78,0-2.25-1.08-3.66.01-1.09.84-.13,1.5-.13,2.88s.12,1.37.12,2.74-.1,1.37-.1,2.75.09,1.37.09,2.74.24,1.37.24,2.75-.32,1.37-.32,2.75.48,1.37.48,2.75-.39,1.37-.39,2.75-.03,1.37-.03,2.75.2,1.37.2,2.74-.28,1.37-.28,2.75.51,1.37.51,2.75-.49,1.37-.49,2.75-.03,1.38-.03,2.75-.99,2.09.09,2.95c1.35,1.08,1.88-.12,3.61-.09.9.06,1.9-.22,2.92-.8,1-.59,1.71-1.49,2.17-2.59.39-.93.65-2.05.65-3.34,0-1.4-.25-1.4-.25-2.79s-.04-1.4-.04-2.79.04-1.4.04-2.79.16-1.4.16-2.79.15-1.4.15-2.79.08-1.4.08-2.79-.26-1.4-.26-2.79-.13-1.4-.13-2.8.25-1.4.19-2.8-.18-1.4-.18-2.8Z" style="fill: #e53333;"/>
    </g>
  </g>
</svg>