<?xml version="1.0" encoding="UTF-8"?>
<svg id="Layer_2" data-name="Layer 2" xmlns="http://www.w3.org/2000/svg" viewBox="0 0 20.68 62.14">
  <g id="Layer_1-2" data-name="Layer 1">
    <path d="m10.35,0c.91,0,1.79.3,2.63.53s1.76.42,2.54.88,1.4,1.14,2.02,1.75,1.35,1.21,1.8,1.98.36,1.77.59,2.62.36,1.65.36,2.56c0,1.39.2,1.39.2,2.78s.05,1.39.05,2.78-.18,1.39-.18,2.78.29,1.39.29,2.78.01,1.39.01,2.78-.24,1.39-.24,2.78-.12,1.39-.12,2.78-.07,1.39-.07,2.78.23,1.39.23,2.78.19,1.39.19,2.78-.28,1.39-.28,2.78.25,1.39.25,2.78-.19,1.39-.19,2.78-.19,1.39-.19,2.79.34,1.39.34,2.79c0,.91-.13,1.8-.36,2.64s-.73,1.59-1.18,2.36-.87,1.56-1.49,2.18-1.48.9-2.26,1.35-1.52.83-2.37,1.06-1.67.43-2.58.43-1.76-.1-2.6-.32-1.74-.38-2.52-.84-1.42-1.09-2.03-1.7-1.03-1.39-1.48-2.16-.75-1.57-.97-2.41-.42-1.67-.42-2.58c0-1.39-.33-1.39-.33-2.78s.16-1.39.16-2.78-.14-1.39-.14-2.78-.01-1.39-.01-2.78.24-1.39.24-2.78.2-1.39.2-2.78-.25-1.39-.25-2.78.22-1.39.22-2.78-.12-1.39-.12-2.78-.15-1.39-.15-2.78.03-1.39.03-2.78.16-1.39.16-2.78-.17-1.39-.17-2.78.02-1.39.02-2.79.2-1.39.2-2.79c0-.91-.01-1.78.21-2.62s.78-1.53,1.23-2.31.82-1.55,1.44-2.17,1.33-1.09,2.1-1.54,1.51-.99,2.35-1.22,1.74-.46,2.64-.46Zm-2.28,52.94c0,.69.05,1.24.54,1.72s1.06.53,1.74.53,1.25-.06,1.74-.54.51-1.03.51-1.72c0-1.36.48-1.36.48-2.72s-.03-1.36-.03-2.72-.2-1.36-.2-2.72-.05-1.36-.05-2.72.18-1.36.18-2.72-.29-1.36-.29-2.72-.01-1.36-.01-2.72.24-1.36.24-2.72.12-1.36.12-2.72.07-1.36.07-2.72-.23-1.36-.23-2.72-.19-1.36-.19-2.72.28-1.36.28-2.72-.25-1.36-.25-2.72.19-1.36.19-2.73.19-1.36.19-2.73c0-.69-.56-1.21-1.05-1.7s-1.01-.73-1.7-.73-1.34.1-1.83.59-.61,1.15-.61,1.83c0,1.36-.3,1.36-.3,2.72s.06,1.36.06,2.72.1,1.36.1,2.72.01,1.36.01,2.72.21,1.36.21,2.72-.11,1.36-.11,2.72-.14,1.36-.14,2.72-.04,1.36-.04,2.72.08,1.36.08,2.72.33,1.36.33,2.72-.16,1.36-.16,2.72.14,1.36.14,2.72.01,1.36.01,2.72-.24,1.36-.24,2.72-.27,1.37-.2,2.74.41,1.35.41,2.72Z" style="fill: #261717;"/>
  </g>
</svg>